<svg width="12" height="14" viewBox="0 0 12 14" fill="none" xmlns="http://www.w3.org/2000/svg">
<path d="M0.295075 8.14053L5.29241 13.1605C5.66841 13.5379 6.33374 13.5379 6.71108 13.1605L11.7084 8.14053C12.0977 7.74853 12.0964 7.1152 11.7044 6.72586C11.3124 6.33653 10.6804 6.33653 10.2897 6.72853L7.00041 10.0312V1.55786C7.00041 1.00453 6.55241 0.557861 6.00041 0.557861C5.44841 0.557861 5.00041 1.00453 5.00041 1.55786V10.0312L1.71241 6.72853C1.51641 6.53253 1.26041 6.4352 1.00307 6.4352C0.748408 6.4352 0.492408 6.53253 0.297742 6.72586C-0.0929252 7.1152 -0.0942585 7.74853 0.295075 8.14053" fill="#F25555"/>
</svg>
