<svg width="20" height="18" viewBox="0 0 20 18" fill="none" xmlns="http://www.w3.org/2000/svg">
<path d="M19.4761 2.674C18.6101 1.042 16.9061 0 15.0301 0H5.05013C3.17413 0 1.47013 1.042 0.604128 2.674C0.410128 3.039 0.502128 3.494 0.825128 3.752L8.25013 9.691C8.77013 10.111 9.40013 10.32 10.0301 10.32C10.0341 10.32 10.0371 10.32 10.0401 10.32C10.0431 10.32 10.0471 10.32 10.0501 10.32C10.6801 10.32 11.3101 10.111 11.8301 9.691L19.2551 3.752C19.5781 3.494 19.6701 3.039 19.4761 2.674" fill="#CCCCCC"/>
<path opacity="0.4" d="M20 12.9407C20 15.7307 17.76 17.9907 14.97 18.0007H14.96H5.05C2.27 18.0007 0 15.7507 0 12.9607V12.9507C0 12.9507 0.006 8.52473 0.014 6.29873C0.015 5.88073 0.495 5.64673 0.822 5.90673C3.198 7.79173 7.447 11.2287 7.5 11.2737C8.21 11.8427 9.11 12.1637 10.03 12.1637C10.95 12.1637 11.85 11.8427 12.56 11.2627C12.613 11.2277 16.767 7.89373 19.179 5.97773C19.507 5.71673 19.989 5.95073 19.99 6.36773C20 8.57673 20 12.9407 20 12.9407" fill="#CCCCCC"/>
</svg>
