<svg width="16" height="16" viewBox="0 0 16 16" fill="none" xmlns="http://www.w3.org/2000/svg">
<path d="M13.7814 3.2986C14.6923 3.2986 15.4307 2.56017 15.4307 1.64927C15.4307 0.73837 14.6923 -6.10352e-05 13.7814 -6.10352e-05C12.8705 -6.10352e-05 12.132 0.73837 12.132 1.64927C12.132 2.56017 12.8705 3.2986 13.7814 3.2986Z" fill="#7E7E7E"/>
<path d="M6.88261 1.59735C5.05784 1.60017 3.30865 2.3264 2.01847 3.61683C0.728293 4.90725 0.00240745 6.65659 -6.10352e-05 8.48135C0.00205554 10.3066 0.727969 12.0565 2.01847 13.3472C3.30898 14.638 5.05872 15.3642 6.88394 15.3667C8.70939 15.3646 10.4595 14.6385 11.7503 13.3477C13.0411 12.0569 13.7672 10.3068 13.7693 8.48135C13.7664 6.65613 13.0399 4.90653 11.7489 3.61628C10.4578 2.32602 8.70783 1.60045 6.88261 1.59868V1.59735ZM6.88261 12.6894C5.76693 12.6894 4.69695 12.2462 3.90804 11.4572C3.11914 10.6683 2.67594 9.59836 2.67594 8.48269C2.67594 7.36701 3.11914 6.29703 3.90804 5.50812C4.69695 4.71922 5.76693 4.27602 6.88261 4.27602C7.99828 4.27602 9.06827 4.71922 9.85717 5.50812C10.6461 6.29703 11.0893 7.36701 11.0893 8.48269C11.0893 9.59836 10.6461 10.6683 9.85717 11.4572C9.06827 12.2462 7.99828 12.6894 6.88261 12.6894V12.6894Z" fill="#7E7E7E"/>
</svg>
