<svg width="16" height="18" viewBox="0 0 16 18" fill="none" xmlns="http://www.w3.org/2000/svg">
<path fill-rule="evenodd" clip-rule="evenodd" d="M4.32759 0.991876C6.64097 -0.352298 9.48449 -0.328804 11.7762 1.05342C14.0453 2.46379 15.4244 4.98089 15.4116 7.68859C15.3588 10.3785 13.88 12.9071 12.0314 14.8617C10.9645 15.995 9.77099 16.9971 8.47524 17.8476C8.34179 17.9247 8.19561 17.9764 8.04392 18C7.89792 17.9938 7.75574 17.9506 7.6302 17.8745C5.65197 16.5966 3.91646 14.9655 2.50717 13.0595C1.32791 11.4685 0.657935 9.54636 0.588228 7.55409C0.586697 4.8412 2.01421 2.33605 4.32759 0.991876ZM5.6644 8.67682C6.05354 9.63617 6.97206 10.2619 7.9911 10.262C8.65869 10.2667 9.30042 9.99934 9.77332 9.51932C10.2462 9.0393 10.511 8.38655 10.5086 7.70651C10.5122 6.6685 9.90106 5.73068 8.96062 5.33093C8.02018 4.93118 6.93592 5.14836 6.21409 5.88107C5.49226 6.61377 5.27526 7.71747 5.6644 8.67682Z" fill="#CCCCCC"/>
</svg>
