<svg width="18" height="16" viewBox="0 0 18 16" fill="none" xmlns="http://www.w3.org/2000/svg">
<path d="M10.4258 15.1321L16.7008 8.88547C17.1725 8.41547 17.1725 7.5838 16.7008 7.11213L10.4258 0.865466C9.93584 0.3788 9.14418 0.380467 8.65751 0.870467C8.17084 1.36047 8.17084 2.15047 8.66084 2.6388L12.7892 6.75047H2.19751C1.50584 6.75047 0.94751 7.31047 0.94751 8.00047C0.94751 8.69047 1.50584 9.25047 2.19751 9.25047H12.7892L8.66084 13.3605C8.41584 13.6055 8.29418 13.9255 8.29418 14.2471C8.29418 14.5655 8.41584 14.8855 8.65751 15.1288C9.14418 15.6171 9.93584 15.6188 10.4258 15.1321" fill="white"/>
</svg>
