<svg width="24" height="28" viewBox="0 0 24 28" fill="none" xmlns="http://www.w3.org/2000/svg">
<path d="M23.3333 14.0162C23.3333 14.8586 23.0682 15.7043 22.5379 16.3815C22.4385 16.5144 21.9744 17.062 21.6099 17.4184L21.411 17.6128C18.6269 20.5646 11.6998 25.0036 8.18656 26.4261C8.18656 26.4585 6.09849 27.3042 5.10417 27.3333H4.97159C3.44697 27.3333 2.02178 26.4941 1.29261 25.1332C0.894887 24.3848 0.530303 22.2138 0.497159 22.1847C0.198864 20.2373 0 17.2564 0 13.9838C0 10.5524 0.198864 7.43863 0.563447 5.52692C0.563447 5.49452 0.928031 3.74483 1.16004 3.16159C1.52462 2.32239 2.1875 1.60631 3.0161 1.15268C3.67898 0.831906 4.375 0.666656 5.10417 0.666656C5.86648 0.702298 7.29167 1.18508 7.85512 1.4119C11.5672 2.83758 18.66 7.50343 21.3778 10.3548C21.8419 10.8084 22.339 11.3625 22.4716 11.4889C23.035 12.2017 23.3333 13.0765 23.3333 14.0162Z" fill="white"/>
</svg>
