<svg width="18" height="16" viewBox="0 0 18 16" fill="none" xmlns="http://www.w3.org/2000/svg">
<path d="M7.57416 0.867867L1.29916 7.11453C0.82749 7.58453 0.82749 8.4162 1.29916 8.88787L7.57416 15.1345C8.06416 15.6212 8.85582 15.6195 9.34249 15.1295C9.82916 14.6395 9.82916 13.8495 9.33916 13.3612L5.21082 9.24953L15.8025 9.24953C16.4942 9.24953 17.0525 8.68953 17.0525 7.99953C17.0525 7.30953 16.4942 6.74953 15.8025 6.74953L5.21082 6.74953L9.33916 2.63953C9.58416 2.39453 9.70582 2.07453 9.70582 1.75287C9.70582 1.43453 9.58416 1.11453 9.34249 0.8712C8.85582 0.382867 8.06416 0.3812 7.57416 0.867867" fill="white"/>
</svg>
