<svg width="14" height="10" viewBox="0 0 14 10" fill="none" xmlns="http://www.w3.org/2000/svg">
<path d="M10.8973 0.36792H3.10265C1.57331 0.36792 0.333313 1.59459 0.333313 3.10659V6.95992C0.333313 8.47325 1.57331 9.69859 3.10265 9.69859H10.8973C12.4266 9.69859 13.6666 8.47192 13.6666 6.95992V3.10659C13.6666 1.59325 12.4266 0.36792 10.8973 0.36792ZM9.02531 5.22125L5.37865 6.94125C5.35634 6.9518 5.33173 6.95654 5.3071 6.95505C5.28247 6.95355 5.25862 6.94587 5.23775 6.93271C5.21688 6.91955 5.19966 6.90133 5.1877 6.87975C5.17574 6.85817 5.16941 6.83393 5.16931 6.80925V3.26259C5.16953 3.23759 5.17614 3.21307 5.1885 3.19135C5.20086 3.16963 5.21857 3.15143 5.23994 3.13847C5.26131 3.12551 5.28564 3.11823 5.31061 3.11732C5.33559 3.11641 5.36038 3.12189 5.38265 3.13325L9.02798 4.95992C9.05195 4.97245 9.07199 4.99136 9.08588 5.01456C9.09978 5.03776 9.10698 5.06436 9.10671 5.0914C9.10643 5.11845 9.09868 5.14489 9.08432 5.1678C9.06995 5.19072 9.04953 5.20922 9.02531 5.22125Z" fill="#7E7E7E"/>
</svg>
