<svg width="26" height="44" viewBox="0 0 26 44" fill="none" xmlns="http://www.w3.org/2000/svg">
<path d="M1.18331 26.7632L11.5532 13.408L12.0376 13.7895L1.66776 27.1448L1.18331 26.7632Z" fill="#F25555"/>
<path d="M1 27.0263L3.86743 12.3026L4.46972 12.421L1.60229 27.1578L1 27.0263Z" fill="#F25555"/>
<path d="M8.30606 40.6711L1 27.0264L1.54992 26.7106L8.85598 40.3553L8.30606 40.6711Z" fill="#F25555"/>
<path d="M3.85434 12.3027L10.1653 2.71059L10.6759 3.0527L4.37807 12.6448L3.85434 12.3027Z" fill="#F25555"/>
<path d="M11.4092 13.9342L13.0458 4.72363L13.6481 4.8289L12.0115 14.0394L11.4092 13.9342Z" fill="#F25555"/>
<path d="M15.2586 23.2631L19.8412 9.84207L20.4304 10.0394L15.8478 23.4605L15.2586 23.2631Z" fill="#F25555"/>
<path d="M18.9378 25.9605L22.1588 11.6842L22.7611 11.8289L19.5401 26.1053L18.9378 25.9605Z" fill="#F25555"/>
<path d="M9.982 34.2368L18.9247 25.6447L19.3568 26.0921L10.4141 34.6842L9.982 34.2368Z" fill="#F25555"/>
<path d="M15.2324 23.3816L11.5401 13.5395L12.1293 13.3158L15.8216 23.1052L15.2324 23.3816Z" fill="#F25555"/>
<path d="M20.0638 10.4605L15.9263 3.57894L16.4239 3.28947L20.5876 10.1447L20.0638 10.4605Z" fill="#F25555"/>
<path d="M24.3977 23.2763L22.1719 11.6842L22.761 11.5263L25 23.2237L24.3977 23.2763Z" fill="#F25555"/>
<path d="M22.0016 33.4343L24.3977 23.1185L25 23.2237L22.6039 33.5659L22.0016 33.4343Z" fill="#F25555"/>
<path d="M17.419 41.2896L22.0933 33.3159L22.617 33.5527L17.9427 41.6317L17.419 41.2896Z" fill="#F25555"/>
<path d="M22.0802 33.6974L18.8723 25.8158L19.4354 25.5658L22.5385 33.25L22.0802 33.6974Z" fill="#F25555"/>
<path d="M22.3944 12.0263L19.802 10.1315L20.1424 9.65784L22.761 11.5263L22.3944 12.0263Z" fill="#F25555"/>
<path d="M10.1653 2.71059L13.5303 1L13.8052 1.53947L10.4141 3.30263L10.1653 2.71059Z" fill="#F25555"/>
<path d="M12.9673 4.73682L16.162 3.1184L16.437 3.65787L13.2291 5.32892L12.9673 4.73682Z" fill="#F25555"/>
<path d="M13.5696 4.60534L10.5319 2.72376L10.2177 3.23692L13.2684 5.18428L13.5696 4.60534Z" fill="#F25555"/>
<path d="M16.0049 3.75L13.216 1.5L13.5303 1L16.4239 3.28947L16.0049 3.75Z" fill="#F25555"/>
<path d="M19.1211 26.4342L15.2324 23.3816L15.5074 22.8816L19.5663 25.9605L19.1211 26.4342Z" fill="#F25555"/>
<path d="M10.1915 34.6447L1.32733 27.3289L1.53683 26.7631L10.7152 34.2236L10.1915 34.6447Z" fill="#F25555"/>
<path d="M13.6088 42.7106L9.95581 34.3027L10.4141 33.9342L14.2504 42.5527L13.6088 42.7106Z" fill="#F25555"/>
<path d="M17.3928 41.3289L11.8282 32.9605L12.1948 32.4999L17.982 41.0657L17.3928 41.3289Z" fill="#F25555"/>
<path d="M13.7529 43L8.30606 40.6711L8.48936 40.1447L14.054 42.4342L13.7529 43Z" fill="#F25555"/>
<path d="M17.9296 41.6448L13.7529 43L13.6219 42.4606L17.7856 41.0132L17.9296 41.6448Z" fill="#F25555"/>
<path d="M8.30606 40.6711L1 27.0264L1.54992 26.7106L8.85598 40.3553L8.30606 40.6711ZM8.30606 40.6711L13.7529 43M8.30606 40.6711L8.48936 40.1447L14.054 42.4342L13.7529 43M10.1653 2.71059L3.85434 12.3027L4.37807 12.6448L10.6759 3.0527L10.1653 2.71059ZM10.1653 2.71059L13.5303 1M10.1653 2.71059L10.4141 3.30263L13.8052 1.53947L13.5303 1M15.2324 23.3816L11.5401 13.5395L12.1293 13.3158L15.8216 23.1052L15.2324 23.3816ZM15.2324 23.3816L19.1211 26.4342L19.5663 25.9605L15.5074 22.8816L15.2324 23.3816ZM16.4239 3.28947L15.9263 3.57894L20.0638 10.4605L20.5876 10.1447L16.4239 3.28947ZM16.4239 3.28947L13.5303 1M16.4239 3.28947L16.0049 3.75L13.216 1.5L13.5303 1M22.7611 11.5263L22.1718 11.6842L24.3977 23.2763L25 23.2237M22.7611 11.5263L25 23.2237M22.7611 11.5263L20.1424 9.65784L19.802 10.1315L22.3944 12.0263L22.7611 11.5263ZM25 23.2237L24.3977 23.1185L22.0016 33.4343L22.6039 33.5659L25 23.2237ZM13.7529 43L17.9296 41.6448L17.7856 41.0132L13.6219 42.4606L13.7529 43ZM1.18331 26.7632L11.5532 13.408L12.0376 13.7895L1.66776 27.1448L1.18331 26.7632ZM1 27.0263L3.86743 12.3026L4.46972 12.421L1.60229 27.1578L1 27.0263ZM11.4092 13.9342L13.0458 4.72363L13.6481 4.8289L12.0115 14.0394L11.4092 13.9342ZM15.2586 23.2631L19.8412 9.84207L20.4304 10.0394L15.8478 23.4605L15.2586 23.2631ZM18.9378 25.9605L22.1588 11.6842L22.7611 11.8289L19.5401 26.1053L18.9378 25.9605ZM9.982 34.2368L18.9247 25.6447L19.3568 26.0921L10.4141 34.6842L9.982 34.2368ZM17.419 41.2896L22.0933 33.3159L22.617 33.5527L17.9427 41.6317L17.419 41.2896ZM22.0802 33.6974L18.8723 25.8158L19.4354 25.5658L22.5385 33.25L22.0802 33.6974ZM12.9673 4.73682L16.162 3.1184L16.437 3.65787L13.2291 5.32892L12.9673 4.73682ZM13.5696 4.60534L10.5319 2.72376L10.2177 3.23692L13.2684 5.18428L13.5696 4.60534ZM10.1915 34.6447L1.32733 27.3289L1.53683 26.7631L10.7152 34.2236L10.1915 34.6447ZM13.6088 42.7106L9.95581 34.3027L10.4141 33.9342L14.2504 42.5527L13.6088 42.7106ZM17.3928 41.3289L11.8282 32.9605L12.1948 32.4999L17.982 41.0657L17.3928 41.3289Z" stroke="#F25555" stroke-width="0.3"/>
</svg>
