<svg width="50" height="50" viewBox="0 0 50 50" fill="none" xmlns="http://www.w3.org/2000/svg">
<g clip-path="url(#clip0)">
<path d="M48.3333 4.58325H35.4458C34.8885 4.58335 34.3682 4.86199 34.0592 5.32575L32.8875 7.08325H3.33333C2.41286 7.08325 1.66666 7.82944 1.66666 8.74992V11.2499C1.66824 11.3708 1.69671 11.4898 1.75 11.5983C1.76769 11.627 1.78688 11.6548 1.8075 11.6816C1.84998 11.7531 1.90341 11.8175 1.96583 11.8724C1.97833 11.8833 1.98416 11.9008 1.9975 11.9108L14.06 21.0774L11.7967 23.7949C11.4775 23.7708 11.1583 23.7499 10.8333 23.7499C8.95067 23.7502 7.10104 24.2444 5.46916 25.1833C5.4525 25.1916 5.43333 25.1916 5.41666 25.2016C5.4 25.2116 5.38416 25.2341 5.36416 25.2474C3.7675 26.1866 2.43669 27.5174 1.4975 29.1141C1.48416 29.1341 1.46333 29.1458 1.45166 29.1666C1.44 29.1874 1.4425 29.2024 1.43416 29.2191C-0.477811 32.5396 -0.477811 36.6269 1.43416 39.9474C1.4425 39.9641 1.44166 39.9833 1.45166 39.9999C1.47165 40.0294 1.49394 40.0573 1.51833 40.0833C2.45632 41.665 3.77933 42.9837 5.36416 43.9166C5.38416 43.9299 5.39583 43.9508 5.41666 43.9624C5.44022 43.9738 5.46443 43.9839 5.48916 43.9924C8.79984 45.8879 12.8668 45.8879 16.1775 43.9924C16.2022 43.9839 16.2264 43.9738 16.25 43.9624C16.2708 43.9508 16.2825 43.9299 16.3025 43.9166C17.8873 42.9837 19.2103 41.665 20.1483 40.0833C20.1727 40.0573 20.195 40.0294 20.215 39.9999C20.225 39.9833 20.2242 39.9641 20.2325 39.9474C20.8861 38.8045 21.3242 37.5512 21.525 36.2499H26.8083C27.0091 37.5512 27.4472 38.8045 28.1008 39.9474C28.1092 39.9641 28.1083 39.9833 28.1183 39.9999C28.1383 40.0294 28.1606 40.0573 28.185 40.0833C29.123 41.665 30.446 42.9837 32.0308 43.9166C32.0508 43.9299 32.0625 43.9508 32.0833 43.9624C32.1069 43.9738 32.1311 43.9839 32.1558 43.9924C35.4665 45.8879 39.5335 45.8879 42.8442 43.9924C42.8689 43.9839 42.8931 43.9738 42.9167 43.9624C42.9375 43.9508 42.9492 43.9299 42.9692 43.9166C44.554 42.9837 45.877 41.665 46.815 40.0833C46.8394 40.0573 46.8617 40.0294 46.8817 39.9999C46.8917 39.9833 46.8908 39.9641 46.8992 39.9474C48.5717 37.0395 48.7938 33.5183 47.5 30.4233V26.5274L49.8333 23.4166C49.9415 23.2723 50 23.0969 50 22.9166V20.4166C50 20.3105 49.9799 20.2053 49.9408 20.1066L47.0242 12.8216C46.6473 11.8711 45.7275 11.2478 44.705 11.2499H36.25L37.1592 9.58325H49.1667C49.6269 9.58325 50 9.21016 50 8.74992V6.24992C50 5.32944 49.2538 4.58325 48.3333 4.58325ZM17.125 21.3183L22.1617 12.0833H26.0967L19.9075 23.4333L17.125 21.3183ZM15.7833 20.2983L12.41 17.7341L15.495 12.0833H20.2633L15.7833 20.2983ZM11.0675 16.7149L4.97416 12.0833H13.5958L11.0675 16.7149ZM16.1142 42.0641L15.7217 41.3841C15.49 40.9889 14.9828 40.8548 14.5861 41.0839C14.1894 41.3129 14.0519 41.8192 14.2783 42.2174L14.6708 42.8974C13.7235 43.3382 12.7072 43.6122 11.6667 43.7074V42.9166C11.6667 42.4564 11.2936 42.0833 10.8333 42.0833C10.3731 42.0833 10 42.4564 10 42.9166V43.7074C8.96084 43.6115 7.946 43.3372 7 42.8966L7.3925 42.2166C7.61891 41.8184 7.48145 41.3121 7.08474 41.083C6.68804 40.854 6.18084 40.9881 5.94916 41.3833L5.55666 42.0633C4.70474 41.4596 3.96118 40.716 3.3575 39.8641L4.0375 39.4716C4.29746 39.3238 4.45829 39.048 4.45895 38.749C4.45961 38.45 4.29998 38.1735 4.04068 38.0245C3.78137 37.8756 3.46214 37.877 3.20416 38.0283L2.52416 38.4208C2.08166 37.4737 1.80595 36.4574 1.70916 35.4166H2.5C2.96023 35.4166 3.33333 35.0435 3.33333 34.5833C3.33333 34.123 2.96023 33.7499 2.5 33.7499H1.70916C1.8051 32.7108 2.07939 31.6959 2.52 30.7499L3.2 31.1424C3.45797 31.2937 3.77721 31.2951 4.03651 31.1461C4.29582 30.9972 4.45544 30.7207 4.45478 30.4217C4.45413 30.1226 4.29329 29.8469 4.03333 29.6991L3.35333 29.3066C3.95701 28.4547 4.70058 27.7111 5.5525 27.1074L5.945 27.7874C6.17667 28.1826 6.68387 28.3167 7.08058 28.0876C7.47728 27.8586 7.61474 27.3523 7.38833 26.9541L7 26.2699C7.946 25.8293 8.96084 25.555 10 25.4591V26.2499C10 26.7102 10.3731 27.0833 10.8333 27.0833C11.2936 27.0833 11.6667 26.7102 11.6667 26.2499V25.4591C12.7072 25.5546 13.7235 25.8289 14.6708 26.2699L14.2783 26.9499C14.1271 27.2079 14.1257 27.5271 14.2746 27.7864C14.4236 28.0457 14.7 28.2054 14.9991 28.2047C15.2981 28.204 15.5739 28.0432 15.7217 27.7833L16.1142 27.1033C16.9661 27.7069 17.7097 28.4505 18.3133 29.3024L17.6333 29.6949C17.3734 29.8427 17.2125 30.1185 17.2119 30.4175C17.2112 30.7166 17.3708 30.993 17.6302 31.142C17.8895 31.2909 18.2087 31.2895 18.4667 31.1383L19.1467 30.7458C19.5873 31.6918 19.8616 32.7066 19.9575 33.7458H19.1667C18.7064 33.7458 18.3333 34.1188 18.3333 34.5791C18.3333 35.0393 18.7064 35.4124 19.1667 35.4124H19.9575C19.8616 36.4516 19.5873 37.4664 19.1467 38.4124L18.4667 38.0199C18.0684 37.7935 17.5621 37.931 17.3331 38.3277C17.1041 38.7244 17.2382 39.2316 17.6333 39.4633L18.3133 39.8558C17.7104 40.7107 16.9668 41.4579 16.1142 42.0641ZM21.6667 34.5833C21.6666 32.7005 21.1721 30.8507 20.2325 29.2191C20.2242 29.2024 20.225 29.1833 20.215 29.1666C20.205 29.1499 20.1825 29.1341 20.1692 29.1149C19.2303 27.5178 17.8994 26.1867 16.3025 25.2474C16.2825 25.2341 16.2708 25.2133 16.25 25.2016C16.2292 25.1899 16.2142 25.1916 16.1975 25.1833C15.4052 24.7309 14.5587 24.3808 13.6783 24.1416L15.3867 22.0899L22.3817 27.4066C22.8172 27.7366 23.3485 27.9157 23.895 27.9166H25.6775C26.5921 27.9165 27.4336 27.4169 27.8717 26.6141L30.3433 22.0833H42.11L45.8333 26.5516V27.6708C45.0256 26.7045 44.0565 25.8854 42.9692 25.2499C42.9492 25.2366 42.9375 25.2158 42.9167 25.2041C42.8958 25.1924 42.8808 25.1949 42.8642 25.1866C39.5436 23.2746 35.4564 23.2746 32.1358 25.1866C32.1192 25.1958 32.1 25.1949 32.0833 25.2049C32.0667 25.2149 32.0508 25.2374 32.0308 25.2508C30.4342 26.1899 29.1034 27.5208 28.1642 29.1174C28.1508 29.1374 28.13 29.1491 28.1183 29.1699C28.1067 29.1908 28.1092 29.2058 28.1008 29.2224C27.1618 30.8531 26.6673 32.7016 26.6667 34.5833H21.6667ZM42.7808 42.0633L42.3883 41.3833C42.2405 41.1233 41.9648 40.9625 41.6657 40.9618C41.3667 40.9611 41.0902 41.1208 40.9413 41.3801C40.7923 41.6394 40.7938 41.9586 40.945 42.2166L41.3375 42.8966C40.3915 43.3372 39.3767 43.6115 38.3375 43.7074V42.9166C38.3375 42.4564 37.9644 42.0833 37.5042 42.0833C37.0439 42.0833 36.6708 42.4564 36.6708 42.9166V43.7074C35.6317 43.6115 34.6168 43.3372 33.6708 42.8966L34.0633 42.2166C34.2146 41.9586 34.216 41.6394 34.067 41.3801C33.9181 41.1208 33.6416 40.9611 33.3426 40.9618C33.0436 40.9625 32.7678 41.1233 32.62 41.3833L32.2275 42.0633C31.3756 41.4596 30.632 40.716 30.0283 39.8641L30.7083 39.4716C31.1035 39.2399 31.2376 38.7327 31.0086 38.336C30.7795 37.9393 30.2732 37.8018 29.875 38.0283L29.195 38.4208C28.7544 37.4748 28.4801 36.4599 28.3842 35.4208H29.1667C29.6269 35.4208 30 35.0477 30 34.5874C30 34.1272 29.6269 33.7541 29.1667 33.7541H28.3758C28.4718 32.7149 28.7461 31.7001 29.1867 30.7541L29.8667 31.1466C30.1246 31.2978 30.4439 31.2992 30.7032 31.1503C30.9625 31.0014 31.1221 30.7249 31.1215 30.4259C31.1208 30.1268 30.96 29.8511 30.7 29.7033L30.02 29.3108C30.6237 28.4588 31.3672 27.7153 32.2192 27.1116L32.6117 27.7916C32.8433 28.1868 33.3505 28.3209 33.7472 28.0918C34.1439 27.8628 34.2814 27.3565 34.055 26.9583L33.6625 26.2783C34.6085 25.8377 35.6233 25.5634 36.6625 25.4674V26.2499C36.6625 26.7102 37.0356 27.0833 37.4958 27.0833C37.9561 27.0833 38.3292 26.7102 38.3292 26.2499V25.4591C39.3683 25.555 40.3832 25.8293 41.3292 26.2699L40.9367 26.9499C40.7854 27.2079 40.784 27.5271 40.933 27.7864C41.0819 28.0457 41.3584 28.2054 41.6574 28.2047C41.9564 28.204 42.2322 28.0432 42.38 27.7833L42.7725 27.1033C43.6244 27.7069 44.368 28.4505 44.9717 29.3024L44.2917 29.6949C44.0317 29.8427 43.8709 30.1185 43.8702 30.4175C43.8696 30.7166 44.0292 30.993 44.2885 31.142C44.5478 31.2909 44.867 31.2895 45.125 31.1383L45.805 30.7458C46.2456 31.6918 46.5199 32.7066 46.6158 33.7458H45.8333C45.3731 33.7458 45 34.1188 45 34.5791C45 35.0393 45.3731 35.4124 45.8333 35.4124H46.6242C46.5282 36.4516 46.2539 37.4664 45.8133 38.4124L45.1333 38.0199C44.8754 37.8687 44.5561 37.8673 44.2968 38.0162C44.0375 38.1652 43.8779 38.4416 43.8786 38.7407C43.8792 39.0397 44.04 39.3155 44.3 39.4633L44.98 39.8558C44.3771 40.7107 43.6334 41.4571 42.7808 42.0633ZM46.6325 24.9074L44.2792 22.0833H48.3333V22.6391L46.6325 24.9074ZM45.4783 13.4408L48.2692 20.4166H38.3333V12.9166L44.705 12.9166C45.0461 12.9154 45.3531 13.1235 45.4783 13.4408ZM36.6667 12.9166V20.4166H31.25L35.3408 12.9166H36.6667ZM48.3333 7.91659H36.6667C36.3617 7.91653 36.0811 8.08306 35.935 8.35075L26.4083 25.8158C26.2624 26.0832 25.9822 26.2497 25.6775 26.2499H23.895C23.713 26.2506 23.5358 26.1921 23.39 26.0833L21.25 24.4533L27.995 12.0833H30C30.4602 12.0833 30.8333 11.7102 30.8333 11.2499C30.8333 10.7897 30.4602 10.4166 30 10.4166H3.33333V8.74992H32.8875C33.4448 8.74982 33.9651 8.47119 34.2742 8.00742L35.4458 6.24992H48.3333V7.91659Z" fill="white"/>
<path d="M10.8333 28.75C7.61167 28.75 5 31.3617 5 34.5833C5 37.805 7.61167 40.4167 10.8333 40.4167C14.055 40.4167 16.6667 37.805 16.6667 34.5833C16.663 31.3632 14.0535 28.7537 10.8333 28.75ZM10.8333 38.75C8.53215 38.75 6.66667 36.8845 6.66667 34.5833C6.66667 32.2821 8.53215 30.4167 10.8333 30.4167C13.1345 30.4167 15 32.2821 15 34.5833C14.9972 36.8834 13.1334 38.7472 10.8333 38.75Z" fill="white"/>
<path d="M37.5 28.75C34.2783 28.75 31.6666 31.3617 31.6666 34.5833C31.6666 37.805 34.2783 40.4167 37.5 40.4167C40.7216 40.4167 43.3333 37.805 43.3333 34.5833C43.3296 31.3632 40.7201 28.7537 37.5 28.75ZM37.5 38.75C35.1988 38.75 33.3333 36.8845 33.3333 34.5833C33.3333 32.2821 35.1988 30.4167 37.5 30.4167C39.8011 30.4167 41.6666 32.2821 41.6666 34.5833C41.6639 36.8834 39.8 38.7472 37.5 38.75Z" fill="white"/>
</g>
<defs>
<clipPath id="clip0">
<rect width="50" height="50" fill="white"/>
</clipPath>
</defs>
</svg>
