<svg width="50" height="50" viewBox="0 0 50 50" fill="none" xmlns="http://www.w3.org/2000/svg">
<g clip-path="url(#clip0)">
<path d="M27.8459 16.5383C28.7842 14.777 28.347 12.5981 26.8018 11.3353C25.2566 10.0724 23.0343 10.0776 21.495 11.3478C19.9558 12.6179 19.5289 14.7989 20.4755 16.5557C21.4222 18.3125 23.4785 19.1553 25.3859 18.5683C26.4441 18.2473 27.3299 17.5163 27.8459 16.5383ZM26.3734 15.7575C25.8139 16.8108 24.5883 17.3222 23.4461 16.979C22.3039 16.6358 21.5632 15.5335 21.6769 14.3463C21.7906 13.1591 22.7272 12.2175 23.9137 12.0974C25.1003 11.9773 26.2065 12.7121 26.5559 13.8525C26.7516 14.4864 26.6859 15.1722 26.3734 15.7575Z" fill="white"/>
<path d="M23.9208 13.7882C23.5986 13.887 23.3675 14.1701 23.3354 14.5057C23.3033 14.8412 23.4765 15.163 23.7742 15.3211C24.072 15.4791 24.4356 15.4423 24.6955 15.2277C24.9554 15.0131 25.0605 14.663 24.9617 14.3407C24.8268 13.9008 24.3608 13.6534 23.9208 13.7882Z" fill="white"/>
<path d="M17.3542 13.5909C15.8657 12.8008 14.0478 12.985 12.7482 14.0578C11.4485 15.1305 10.923 16.8805 11.4167 18.4917C11.9691 20.2949 13.6638 21.5022 15.5486 21.4352C17.4333 21.3683 19.038 20.0437 19.4611 18.2058C19.8841 16.368 19.0199 14.4751 17.3542 13.5909ZM17.6092 18.4426C17.0785 19.4415 15.9432 19.9596 14.8409 19.706C13.7385 19.4524 12.9438 18.4903 12.903 17.3599C12.8622 16.2295 13.5855 15.2125 14.6667 14.8801C14.9052 14.8072 15.1531 14.7698 15.4025 14.7692C16.2796 14.7701 17.092 15.2306 17.5434 15.9826C17.9948 16.7346 18.0191 17.6681 17.6075 18.4426H17.6092Z" fill="white"/>
<path d="M15.1567 16.4743C14.8344 16.573 14.6033 16.8562 14.5712 17.1917C14.5392 17.5272 14.7124 17.8491 15.0101 18.0071C15.3078 18.1652 15.6714 18.1283 15.9313 17.9137C16.1913 17.6991 16.2963 17.349 16.1975 17.0268C16.0626 16.5868 15.5967 16.3395 15.1567 16.4743Z" fill="white"/>
<path d="M8.59 16.2767C6.83424 15.3446 4.66456 15.7826 3.40788 17.3228C2.15119 18.863 2.15751 21.0765 3.42298 22.6095C4.68844 24.1425 6.86059 24.5681 8.611 23.626C10.3614 22.6839 11.2025 20.6365 10.62 18.7359C10.2991 17.6779 9.56806 16.7923 8.59 16.2767ZM8.84501 21.1284C8.2861 22.1821 7.06068 22.6942 5.91822 22.3516C4.77575 22.0089 4.03448 20.9069 4.14776 19.7195C4.26104 18.5322 5.19732 17.5902 6.38397 17.4697C7.57062 17.3493 8.6771 18.0839 9.02667 19.2242C9.2229 19.8577 9.15748 20.5434 8.84501 21.1284Z" fill="white"/>
<path d="M6.39253 19.1601C6.07024 19.2588 5.83918 19.542 5.80709 19.8775C5.77499 20.213 5.94819 20.5349 6.24591 20.6929C6.54364 20.8509 6.90724 20.8141 7.16717 20.5995C7.42711 20.3849 7.53216 20.0348 7.43336 19.7126C7.29847 19.2726 6.83251 19.0253 6.39253 19.1601Z" fill="white"/>
<path d="M0.675852 28.0467C0.960798 28.2588 1.30644 28.3737 1.66169 28.3742C1.82891 28.3742 1.99519 28.3492 2.15502 28.3L26.1175 20.955C29.1432 20.0192 31.0928 17.0838 30.7821 13.932C30.4713 10.7802 27.986 8.28201 24.8359 7.95502C24.9424 7.67666 24.998 7.38141 25 7.08336V6.71836C25.0002 5.94836 24.6455 5.22124 24.0386 4.74735C23.4317 4.27346 22.6403 4.10567 21.8934 4.29252L21.6009 4.36586C20.7056 4.58989 20.0066 5.28892 19.7825 6.18419L19.7559 6.29169L19.4667 6.05836C18.8666 5.60361 18.092 5.44715 17.3625 5.63336L15.525 6.09752C15.2927 6.15322 15.0477 6.11169 14.8467 5.98252L13.6367 5.17336C12.9978 4.74287 12.1945 4.63559 11.465 4.88336L10.8725 5.07836C9.85502 5.42248 9.16926 6.37591 9.16669 7.45002V7.71669C9.16484 8.04121 8.97641 8.3357 8.68252 8.47336L8.57085 8.53252C8.07638 8.78748 7.68107 9.20009 7.44752 9.70502C7.43002 9.69502 7.41585 9.68169 7.39752 9.67252L5.85419 8.92252C5.16679 8.58663 4.33899 8.76188 3.84669 9.34752L2.98835 10.3684C2.58119 10.8518 2.48424 11.5246 2.73835 12.1034L3.47752 13.8134C3.49669 13.8575 3.52669 13.8967 3.54919 13.9342L1.18335 14.6592C0.480105 14.8689 -0.00140959 15.5162 1.85744e-05 16.25V26.7059C-0.00248788 27.2353 0.248801 27.7338 0.675852 28.0467ZM21.3259 6.88002L21.3992 6.58752C21.4738 6.28874 21.7071 6.05545 22.0059 5.98086L22.2984 5.90752C22.3649 5.89101 22.4332 5.88262 22.5017 5.88252C22.9619 5.88252 23.335 6.25562 23.335 6.71586V7.08336C23.335 7.54359 22.9619 7.91669 22.5017 7.91669H22.1367C21.8801 7.91688 21.6376 7.7988 21.4796 7.59662C21.3215 7.39444 21.2654 7.1307 21.3275 6.88169L21.3259 6.88002ZM8.90919 10.5034C8.98247 10.287 9.13904 10.1088 9.34419 10.0084L9.44919 9.95169C10.2987 9.53126 10.8355 8.66456 10.8334 7.71669V7.45002C10.835 7.09206 11.063 6.77436 11.4017 6.65836L11.9925 6.46419C12.2339 6.38128 12.5001 6.41645 12.7117 6.55919L13.9242 7.37086C14.5138 7.75506 15.2355 7.8801 15.92 7.71669L17.775 7.25002C18.0047 7.19181 18.2484 7.23719 18.4417 7.37419L20.23 8.82086L8.33331 12.4642L8.33335 12.35C8.33243 12.262 8.34594 12.1745 8.37335 12.0909L8.90919 10.5034ZM4.26585 11.4367L5.12252 10.4167L6.66669 11.1667L5.00002 13.1484L4.26085 11.4384L3.62335 10.9017L4.26585 11.4367ZM1.66669 16.25L22.7025 9.80502C23.9694 9.41334 25.3403 9.54446 26.51 10.1692C28.2933 11.1185 29.3301 13.0477 29.1378 15.0588C28.9454 17.0699 27.5618 18.7676 25.6309 19.3617L1.66669 26.7059V16.25Z" fill="white"/>
<path d="M43.7417 29.3701L42.5692 27.0243C42.4921 26.8704 42.432 26.7086 42.39 26.5418L42.1058 25.4051C41.7489 23.9718 40.6343 22.8498 39.2033 22.4835L39.1758 22.4768C38 22.181 36.7534 22.4325 35.7842 23.161L34.9442 23.7918C33.9324 24.5538 33.3361 25.746 33.3333 27.0126V27.7768C33.3311 28.6045 32.897 29.3709 32.1883 29.7985L30.2558 30.9585C29.6892 31.2984 29.215 31.7727 28.875 32.3393L27.5417 34.5576C27.1861 35.1485 26.5894 35.5538 25.9092 35.6668L23.1833 36.1218C22.5054 36.2348 21.8677 36.5194 21.3308 36.9485L18.36 39.3251C17.9069 39.6898 17.5374 40.1477 17.2767 40.6676L16.6933 41.8343C16.2997 42.6265 15.6057 43.2284 14.7658 43.506L13.8392 43.8151C13.259 44.0099 12.9051 44.5962 13.0031 45.2003C13.1011 45.8044 13.6221 46.2487 14.2342 46.2501H48.4925C48.9258 46.2503 49.3283 46.026 49.5561 45.6574C49.784 45.2888 49.8047 44.8285 49.6108 44.441L47.75 40.7185C47.5871 40.3917 47.5016 40.0319 47.5 39.6668V38.4085C47.5026 37.3405 47.078 36.3158 46.3208 35.5626L44.8575 34.0985C44.4137 33.6576 44.1649 33.0574 44.1667 32.4318V31.1668C44.1654 30.5431 44.0199 29.9282 43.7417 29.3701ZM45.1425 36.7385C45.5863 37.1793 45.8351 37.7796 45.8333 38.4051V39.6668C45.8341 40.2916 45.9796 40.9076 46.2583 41.4668L47.8192 44.5835H41.2792L40.7083 43.726C40.2465 43.0354 40 42.2234 40 41.3926C40.0006 40.6441 39.8577 39.9024 39.5792 39.2076L38.2742 35.9435C38.1634 35.6669 37.9135 35.4704 37.6186 35.428C37.3237 35.3856 37.0286 35.5038 36.8444 35.738C36.6603 35.9722 36.6151 36.2869 36.7258 36.5635L38.0317 39.8276C38.231 40.3241 38.3334 40.8542 38.3333 41.3893C38.3339 42.5236 38.6639 43.6332 39.2833 44.5835H16.3667C17.1456 44.0974 17.7747 43.4052 18.1842 42.5835L18.7675 41.4168C18.9204 41.1121 19.137 40.8439 19.4025 40.6301L22.3717 38.2501C22.6857 37.999 23.0585 37.8321 23.455 37.7651L26.1808 37.311C27.3444 37.1196 28.3653 36.4271 28.9733 35.4168L30.3067 33.1985C30.5061 32.8666 30.7839 32.5887 31.1158 32.3893L33.0483 31.2293C34.2573 30.4983 34.9971 29.1895 35 27.7768V27.0126C35.0018 26.2708 35.3509 25.5725 35.9433 25.126L36.785 24.4951C37.3465 24.0718 38.0683 23.9226 38.7517 24.0885L38.7733 24.0943C39.6187 24.3049 40.2789 24.9648 40.49 25.8101L40.7733 26.9443C40.8448 27.2295 40.9471 27.5061 41.0783 27.7693L42.25 30.1151C42.4129 30.4419 42.4984 30.8017 42.5 31.1668V32.4251C42.4974 33.4931 42.922 34.5178 43.6792 35.271L45.1425 36.7385Z" fill="white"/>
<path d="M35.4684 19.5834H35.8334C37.2141 19.5834 38.3334 18.4641 38.3334 17.0834V16.7184C38.3335 15.9484 37.9789 15.2212 37.372 14.7474C36.7651 14.2735 35.9737 14.1057 35.2267 14.2925L34.9342 14.3659C34.0389 14.5899 33.3399 15.2889 33.1159 16.1842L33.0425 16.4767C32.8557 17.2237 33.0235 18.0151 33.4974 18.622C33.9712 19.2289 34.6984 19.5835 35.4684 19.5834ZM34.6592 16.8817L34.7325 16.5892C34.8071 16.2904 35.0404 16.0571 35.3392 15.9825L35.6317 15.9092C35.6982 15.8927 35.7665 15.8843 35.835 15.8842C36.2953 15.8842 36.6684 16.2573 36.6684 16.7175V17.0834C36.6684 17.5436 36.2953 17.9167 35.835 17.9167H35.47C35.2134 17.9169 34.971 17.7988 34.8129 17.5966C34.6548 17.3944 34.5987 17.1307 34.6609 16.8817H34.6592Z" fill="white"/>
<path d="M31.6667 5.41675C31.1535 5.41683 30.669 5.65331 30.3532 6.05781C30.0374 6.46231 29.9256 6.98973 30.05 7.48759L30.4667 9.15425C30.6521 9.89613 31.3186 10.4166 32.0833 10.4168H33.4167C34.0481 10.4201 34.6266 10.0647 34.9092 9.50008L35.7425 7.83342C36.0032 7.3161 35.9766 6.70053 35.6722 6.20766C35.3678 5.71478 34.8293 5.41532 34.25 5.41675H31.6667ZM33.4167 8.75009H32.0833L31.6667 7.08342H34.25L33.4167 8.75009Z" fill="white"/>
<path d="M33.7625 34.7026C33.3681 34.4657 32.8563 34.5932 32.6192 34.9876L31.3334 37.1368C30.7301 38.1364 29.6484 38.7481 28.4809 38.7501C27.7066 38.7512 26.943 38.9314 26.25 39.2768L23.7942 40.5043C23.3823 40.71 23.2151 41.2107 23.4209 41.6226C23.6266 42.0345 24.1273 42.2017 24.5392 41.9959L27 40.7676C27.4601 40.5383 27.9668 40.4182 28.4809 40.4168C30.2317 40.4117 31.8531 39.4938 32.7584 37.9951L34.0475 35.8459C34.2845 35.4515 34.1569 34.9397 33.7625 34.7026Z" fill="white"/>
</g>
<defs>
<clipPath id="clip0">
<rect width="50" height="50" fill="white"/>
</clipPath>
</defs>
</svg>
