<svg width="50" height="50" viewBox="0 0 50 50" fill="none" xmlns="http://www.w3.org/2000/svg">
<g clip-path="url(#clip0)">
<path d="M48.2082 44.9498L45.3132 43.4423C45.2103 43.3825 45.1483 43.2713 45.1516 43.1523V42.569C45.1933 42.5134 45.2365 42.4518 45.2816 42.384C45.6526 41.8351 45.9523 41.2411 46.1732 40.6165C46.6726 40.2852 46.9717 39.7249 46.969 39.1257V37.8658C46.969 37.5099 46.8638 37.162 46.6665 36.8658V35.3825C46.7363 34.487 46.4483 33.6003 45.8656 32.9167C45.1991 32.2186 44.2959 31.7948 43.3331 31.7283V27.5C43.3331 26.5795 42.5869 25.8333 41.6664 25.8333H37.3331C36.9778 24.394 36.0125 23.1812 34.6898 22.5116L29.624 19.9491C29.2465 19.7565 29.01 19.3672 29.0132 18.9433V17.7666C29.1165 17.635 29.2273 17.4858 29.3465 17.3225C30.0051 16.3745 30.5305 15.3408 30.9081 14.25C31.7039 13.8278 32.2003 12.9993 32.1972 12.0984V9.95592C32.1959 9.40582 32.0088 8.87233 31.6664 8.44176V5.70584C31.7712 4.35252 31.3392 3.01239 30.4638 1.97499C29.3133 0.666697 27.475 0 25 0C22.525 0 20.6859 0.666697 19.535 1.97587C18.6602 3.01317 18.2285 4.35301 18.3333 5.70584V8.44167C17.9909 8.87223 17.8038 9.40572 17.8025 9.95582V12.1016C17.8017 12.8032 18.1029 13.471 18.6291 13.9349C19.0012 15.3074 19.6199 16.6006 20.455 17.7516V18.8941C20.4564 19.3033 20.2356 19.6811 19.8783 19.8808L15.1475 22.4916C13.8756 23.1989 12.9647 24.4141 12.6425 25.8333H8.33337C7.41286 25.8333 6.66668 26.5795 6.66668 27.5V31.7283C5.70389 31.7948 4.80067 32.2186 4.13417 32.9167C3.55145 33.6003 3.26347 34.487 3.33329 35.3825V36.8691C3.13603 37.1653 3.03075 37.5132 3.03075 37.8691V39.1316C3.03017 39.5984 3.212 40.0469 3.53739 40.3816C3.75282 41.156 4.09305 41.8901 4.54491 42.5549V43.124C4.54774 43.2397 4.48944 43.3483 4.39159 43.4099L1.6874 44.9448C0.636817 45.5529 -0.00722289 46.6775 -9.40135e-05 47.8915V48.8507C-0.00331666 49.4814 0.504982 49.9957 1.13574 49.9998H13.8642C14.495 49.9957 15.0033 49.4814 15 48.8507V47.9532C15.0103 46.697 14.3193 45.5399 13.2083 44.9532L10.3133 43.4457C10.2104 43.386 10.1484 43.2747 10.1517 43.1557V42.5724C10.1934 42.5168 10.2367 42.4552 10.2817 42.3874C10.6528 41.8385 10.9524 41.2446 11.1734 40.62C11.6727 40.2886 11.9718 39.7284 11.9692 39.1291V37.8658C11.9692 37.5099 11.8639 37.162 11.6667 36.8658V35.3825C11.7365 34.487 11.4485 33.6003 10.8658 32.9167C10.1993 32.2186 9.29606 31.7948 8.33327 31.7283V27.5H12.5V28.63C12.4991 29.3847 13.1094 29.9976 13.8641 30H24.1666V31.7283C23.2038 31.7948 22.3006 32.2186 21.6341 32.9167C21.0514 33.6003 20.7634 34.487 20.8332 35.3825V36.8691C20.636 37.1653 20.5307 37.5132 20.5307 37.8691V39.1316C20.5301 39.5984 20.7119 40.0469 21.0373 40.3816C21.2527 41.156 21.593 41.8901 22.0448 42.5549V43.124C22.0477 43.2397 21.9894 43.3483 21.8915 43.4099L19.1873 44.9457C18.1369 45.5537 17.493 46.6779 17.4998 47.8915V48.8507C17.4966 49.4814 18.0049 49.9957 18.6357 49.9998H31.3641C31.9949 49.9957 32.5032 49.4814 32.5 48.8507V47.9532C32.5102 46.697 31.8192 45.5399 30.7083 44.9532L27.8133 43.4457C27.7103 43.386 27.6483 43.2747 27.6516 43.1557V42.5724C27.6933 42.5168 27.7366 42.4552 27.7816 42.3874C28.1527 41.8385 28.4523 41.2446 28.6733 40.62C29.1726 40.2886 29.4718 39.7284 29.4691 39.1291V37.8658C29.4691 37.5099 29.3638 37.162 29.1666 36.8658V35.3825C29.2364 34.487 28.9484 33.6003 28.3657 32.9167C27.6992 32.2186 26.796 31.7948 25.8332 31.7283V30H36.1357C36.8904 29.9976 37.5008 29.3847 37.4998 28.63V27.5H41.6665V31.7283C40.7037 31.7948 39.8005 32.2186 39.134 32.9167C38.5513 33.6003 38.2633 34.487 38.3331 35.3825V36.8691C38.1359 37.1653 38.0306 37.5132 38.0306 37.8691V39.1316C38.03 39.5984 38.2119 40.0469 38.5372 40.3816C38.7527 41.156 39.0929 41.8901 39.5448 42.5549V43.124C39.5476 43.2397 39.4893 43.3483 39.3914 43.4099L36.6872 44.9457C35.6369 45.5537 34.9929 46.6779 34.9998 47.8915V48.8507C34.9965 49.4814 35.5048 49.9957 36.1356 49.9998H48.8641C49.4948 49.9957 50.0031 49.4814 49.9999 48.8507V47.9532C50.0113 46.6957 49.3201 45.537 48.2082 44.9498ZM9.60416 34.0065C9.88932 34.3504 10.0332 34.7897 10.0067 35.2357C10.0024 35.2706 10.0002 35.3056 10.0001 35.3407V37.1666C9.99996 37.3966 10.095 37.6165 10.2626 37.7741C10.2881 37.7977 10.3027 37.8309 10.3026 37.8658V39.1283C10.3048 39.1746 10.2784 39.2177 10.2359 39.2366C9.9774 39.3202 9.77594 39.5245 9.69586 39.784C9.51588 40.3757 9.24909 40.9373 8.90417 41.4507C8.82087 41.5691 8.74831 41.6699 8.68249 41.7482C8.55505 41.8986 8.48503 42.0894 8.48503 42.2865V43.154C8.47936 43.8947 8.88776 44.5767 9.54332 44.9215L12.4383 46.4298C12.9941 46.7344 13.3377 47.3194 13.3333 47.9531V48.3331H1.6667V47.8914C1.65859 47.276 1.98115 46.7034 2.51171 46.3914L5.21502 44.8556C5.83562 44.499 6.21736 43.8371 6.21502 43.1214V42.2848C6.21502 42.0951 6.15037 41.9111 6.03172 41.7631C5.58914 41.1592 5.27234 40.4726 5.10008 39.744C5.05399 39.535 4.92928 39.3518 4.75174 39.2323C4.71854 39.2081 4.6995 39.1691 4.70086 39.1281V37.8656C4.70077 37.8307 4.71532 37.7975 4.7409 37.7739C4.90731 37.6157 5.00106 37.3959 5.00008 37.1664V35.3405C4.99979 35.3087 4.99783 35.277 4.99422 35.2455C4.96492 34.7962 5.10867 34.3529 5.39588 34.0063C5.97234 33.4976 6.73533 33.2535 7.50007 33.333C8.26472 33.2537 9.0278 33.4978 9.60416 34.0065ZM29.8783 21.9433L29.0366 22.9999L26.6383 21.0832L27.88 20.5832C28.1377 20.9441 28.4783 21.2376 28.8733 21.4391L29.8783 21.9433ZM20.1833 13.2683V13.2716C20.1354 13.0606 20.0071 12.8765 19.8258 12.7582C19.6035 12.6154 19.4692 12.3692 19.4692 12.1049V9.95582C19.4705 9.73668 19.5647 9.52828 19.7283 9.38248C19.9015 9.22457 20.0001 9.00104 20 8.76666V5.66668C20 5.63074 19.9976 5.5948 19.9925 5.55916C19.9284 4.66072 20.2132 3.77215 20.7875 3.07831C21.6092 2.13993 23.0259 1.66659 25 1.66659C26.9741 1.66659 28.375 2.13573 29.1983 3.05995C29.7801 3.75624 30.07 4.65057 30.0075 5.55574C30.0023 5.59246 29.9999 5.62947 30 5.66658V8.76657C29.9999 9.00094 30.0985 9.22448 30.2717 9.38239C30.4353 9.52818 30.5295 9.73658 30.5308 9.95572V12.1015C30.5284 12.439 30.3091 12.7366 29.9875 12.839C29.7277 12.9202 29.524 13.123 29.4417 13.3824C29.1074 14.4452 28.6143 15.4512 27.9792 16.3665C27.8242 16.5873 27.6783 16.7765 27.5525 16.9232C27.4212 17.0744 27.3487 17.2679 27.3483 17.4682V18.9423C27.3483 18.9607 27.3483 18.9781 27.3525 18.9956L25 19.9357L22.1217 18.7823V17.4682C22.1218 17.2748 22.0546 17.0874 21.9317 16.9382C21.1022 15.8485 20.5069 14.5991 20.1833 13.2683ZM26.6316 23.2065L26.2241 24.0216C26.0482 24.3996 25.7508 24.7076 25.3791 24.8966C25.1555 25.0673 24.8452 25.0673 24.6216 24.8966C24.2495 24.7079 23.9517 24.3998 23.7758 24.0216L23.3683 23.2065L24.9999 21.9007L26.6316 23.2065ZM20.6833 21.3424C21.0878 21.1178 21.4294 20.7951 21.6767 20.404L23.3625 21.079L20.9634 22.9957L19.9575 21.7399L20.6833 21.3424ZM21.1025 28.3332H14.1666V26.9999C14.163 25.7342 14.8473 24.5663 15.9533 23.9507L18.4774 22.5582L20.1832 24.6882C20.4707 25.0473 20.9947 25.1054 21.354 24.8182L22.0373 24.2715L22.2873 24.7715C22.3307 24.8548 22.3857 24.9331 22.434 25.0148L21.1025 28.3332ZM27.1041 34.0065C27.3892 34.3504 27.5331 34.7897 27.5066 35.2357C27.5023 35.2706 27.5001 35.3056 27.5 35.3407V37.1666C27.4999 37.3966 27.5949 37.6165 27.7625 37.7741C27.7881 37.7977 27.8026 37.8309 27.8025 37.8658V39.1283C27.8048 39.1746 27.7783 39.2177 27.7358 39.2366C27.4773 39.3202 27.2759 39.5245 27.1958 39.784C27.0158 40.3757 26.749 40.9373 26.4041 41.4507C26.3208 41.5691 26.2482 41.6699 26.1824 41.7482C26.055 41.8986 25.985 42.0894 25.985 42.2865V43.154C25.9793 43.8947 26.3877 44.5767 27.0432 44.9215L29.9383 46.4298C30.494 46.7344 30.8377 47.3194 30.8333 47.9531V48.3331H19.1666V47.8914C19.1585 47.276 19.4811 46.7034 20.0116 46.3914L22.7149 44.8556C23.3356 44.499 23.7173 43.8371 23.7149 43.1214V42.2848C23.7149 42.0951 23.6503 41.9111 23.5316 41.7631C23.0891 41.1592 22.7723 40.4726 22.6 39.744C22.5539 39.535 22.4292 39.3518 22.2517 39.2323C22.2185 39.2081 22.1994 39.1691 22.2008 39.1281V37.8656C22.2007 37.8307 22.2152 37.7975 22.2408 37.7739C22.4072 37.6157 22.501 37.3959 22.5 37.1664V35.3405C22.4997 35.3087 22.4978 35.277 22.4941 35.2455C22.4649 34.7962 22.6086 34.3529 22.8958 34.0063C23.4723 33.4976 24.2353 33.2535 25 33.333C25.7646 33.2537 26.5277 33.4978 27.1041 34.0065ZM22.8975 28.3332L23.7149 26.2891C23.785 26.3282 23.8516 26.3766 23.9241 26.4099C24.6008 26.752 25.3999 26.752 26.0767 26.4099C26.1491 26.3766 26.215 26.3266 26.285 26.2898L27.1024 28.3332H22.8975ZM28.8974 28.3332L27.5682 25.0107C27.6166 24.9274 27.6716 24.8532 27.7149 24.7674L27.9649 24.2674L28.6482 24.8141C28.8208 24.9522 29.0412 25.0162 29.261 24.9918C29.4807 24.9674 29.6818 24.8567 29.8199 24.6841L31.4032 22.7091L33.9398 23.9999C35.1076 24.5929 35.8404 25.7944 35.8332 27.1041L35.8332 28.3333H28.8974V28.3332ZM36.6665 48.3331V47.8914C36.6584 47.276 36.981 46.7034 37.5116 46.3914L40.2149 44.8556C40.8355 44.499 41.2172 43.8371 41.2149 43.1214V42.2848C41.2149 42.0951 41.1502 41.9111 41.0316 41.7631C40.589 41.1592 40.2722 40.4726 40.0999 39.744C40.0538 39.535 39.9291 39.3518 39.7516 39.2323C39.7184 39.2081 39.6993 39.1691 39.7007 39.1281V37.8656C39.7006 37.8307 39.7152 37.7975 39.7408 37.7739C39.9072 37.6157 40.0009 37.3959 39.9999 37.1664V35.3405C39.9996 35.3087 39.9977 35.277 39.9941 35.2455C39.9648 34.7962 40.1085 34.3529 40.3957 34.0063C40.9722 33.4976 41.7352 33.2535 42.4999 33.333C43.2646 33.2534 44.0276 33.4976 44.6041 34.0063C44.8893 34.3502 45.0331 34.7895 45.0066 35.2355C45.0024 35.2704 45.0001 35.3054 45 35.3405V37.1664C44.9999 37.3964 45.0949 37.6163 45.2625 37.7739C45.2881 37.7975 45.3026 37.8307 45.3025 37.8656V39.1281C45.3048 39.1745 45.2783 39.2175 45.2358 39.2364C44.9774 39.32 44.7759 39.5243 44.6958 39.7838C44.5158 40.3755 44.249 40.9371 43.9041 41.4505C43.8208 41.5689 43.7483 41.6697 43.6824 41.748C43.555 41.8984 43.485 42.0892 43.485 42.2864V43.1538C43.4793 43.8946 43.8877 44.5765 44.5433 44.9213L47.4383 46.4296C47.994 46.7342 48.3377 47.3192 48.3333 47.9529V48.3329H36.6665V48.3331Z" fill="white"/>
</g>
<defs>
<clipPath id="clip0">
<rect width="50" height="50" fill="white"/>
</clipPath>
</defs>
</svg>
