<svg width="32" height="32" viewBox="0 0 32 32" fill="none" xmlns="http://www.w3.org/2000/svg">
<path d="M8 0C6.9 0 6 0.9 6 2V30C6 31.1 6.9 32 8 32H28C29.1 32 30 31.1 30 30V8L22 0H8Z" fill="#E2E5E7"/>
<path d="M24 8H30L22 0V6C22 7.1 22.9 8 24 8Z" fill="#B0B7BD"/>
<path d="M30 14L24 8H30V14Z" fill="#CAD1D8"/>
<path d="M26 26C26 26.55 25.55 27 25 27H3C2.45 27 2 26.55 2 26V16C2 15.45 2.45 15 3 15H25C25.55 15 26 15.45 26 16V26Z" fill="#BE0F0F"/>
<path d="M6.35938 18.9469C6.35938 18.6829 6.56737 18.3949 6.90237 18.3949H8.74937C9.78937 18.3949 10.7254 19.0909 10.7254 20.4249C10.7254 21.6889 9.78937 22.3929 8.74937 22.3929H7.41437V23.4489C7.41437 23.8009 7.19037 23.9999 6.90237 23.9999C6.63837 23.9999 6.35938 23.8009 6.35938 23.4489V18.9469ZM7.41437 19.4019V21.3939H8.74937C9.28537 21.3939 9.70937 20.9209 9.70937 20.4249C9.70937 19.8659 9.28537 19.4019 8.74937 19.4019H7.41437Z" fill="white"/>
<path d="M12.2913 23.9998C12.0273 23.9998 11.7393 23.8558 11.7393 23.5048V18.9628C11.7393 18.6758 12.0273 18.4668 12.2913 18.4668H14.1223C17.7763 18.4668 17.6963 23.9998 14.1943 23.9998H12.2913ZM12.7953 19.4428V23.0248H14.1223C16.2813 23.0248 16.3773 19.4428 14.1223 19.4428H12.7953Z" fill="white"/>
<path d="M18.9923 19.5068V20.7778H21.0313C21.3193 20.7778 21.6073 21.0658 21.6073 21.3448C21.6073 21.6088 21.3193 21.8248 21.0313 21.8248H18.9923V23.5038C18.9923 23.7838 18.7933 23.9988 18.5133 23.9988C18.1613 23.9988 17.9463 23.7838 17.9463 23.5038V18.9618C17.9463 18.6748 18.1623 18.4658 18.5133 18.4658H21.3203C21.6723 18.4658 21.8803 18.6748 21.8803 18.9618C21.8803 19.2178 21.6723 19.5058 21.3203 19.5058H18.9923V19.5068Z" fill="white"/>
<path d="M25 27H6V28H25C25.55 28 26 27.55 26 27V26C26 26.55 25.55 27 25 27Z" fill="#CAD1D8"/>
</svg>
